G04 #@! TF.FileFunction,Legend,Top*
%FSLAX46Y46*%
G04 Gerber Fmt 4.6, Leading zero omitted, Abs format (unit mm)*
G04 Created by KiCad (PCBNEW 4.0.6) date Fri Jun 16 13:15:56 2017*
%MOMM*%
%LPD*%
G01*
G04 APERTURE LIST*
%ADD10C,0.100000*%
%ADD11C,0.300000*%
%ADD12C,0.200000*%
%ADD13C,0.150000*%
G04 APERTURE END LIST*
D10*
D11*
X60030000Y-24465000D02*
X60363333Y-25398333D01*
X60696667Y-24465000D01*
X61963334Y-25398333D02*
X61163334Y-25398333D01*
X61563334Y-25398333D02*
X61563334Y-23998333D01*
X61430000Y-24198333D01*
X61296667Y-24331667D01*
X61163334Y-24398333D01*
X38251666Y-25468333D02*
X38251666Y-24068333D01*
X38251666Y-24735000D02*
X39051666Y-24735000D01*
X39051666Y-25468333D02*
X39051666Y-24068333D01*
X40251667Y-25401667D02*
X40118333Y-25468333D01*
X39851667Y-25468333D01*
X39718333Y-25401667D01*
X39651667Y-25268333D01*
X39651667Y-24735000D01*
X39718333Y-24601667D01*
X39851667Y-24535000D01*
X40118333Y-24535000D01*
X40251667Y-24601667D01*
X40318333Y-24735000D01*
X40318333Y-24868333D01*
X39651667Y-25001667D01*
X41518333Y-25468333D02*
X41518333Y-24735000D01*
X41451667Y-24601667D01*
X41318333Y-24535000D01*
X41051667Y-24535000D01*
X40918333Y-24601667D01*
X41518333Y-25401667D02*
X41385000Y-25468333D01*
X41051667Y-25468333D01*
X40918333Y-25401667D01*
X40851667Y-25268333D01*
X40851667Y-25135000D01*
X40918333Y-25001667D01*
X41051667Y-24935000D01*
X41385000Y-24935000D01*
X41518333Y-24868333D01*
X42785000Y-25468333D02*
X42785000Y-24068333D01*
X42785000Y-25401667D02*
X42651667Y-25468333D01*
X42385000Y-25468333D01*
X42251667Y-25401667D01*
X42185000Y-25335000D01*
X42118334Y-25201667D01*
X42118334Y-24801667D01*
X42185000Y-24668333D01*
X42251667Y-24601667D01*
X42385000Y-24535000D01*
X42651667Y-24535000D01*
X42785000Y-24601667D01*
X43985001Y-25401667D02*
X43851667Y-25468333D01*
X43585001Y-25468333D01*
X43451667Y-25401667D01*
X43385001Y-25268333D01*
X43385001Y-24735000D01*
X43451667Y-24601667D01*
X43585001Y-24535000D01*
X43851667Y-24535000D01*
X43985001Y-24601667D01*
X44051667Y-24735000D01*
X44051667Y-24868333D01*
X43385001Y-25001667D01*
X44651667Y-25468333D02*
X44651667Y-24535000D01*
X44651667Y-24801667D02*
X44718334Y-24668333D01*
X44785001Y-24601667D01*
X44918334Y-24535000D01*
X45051667Y-24535000D01*
X46785001Y-25468333D02*
X46651668Y-25401667D01*
X46585001Y-25335000D01*
X46518335Y-25201667D01*
X46518335Y-24801667D01*
X46585001Y-24668333D01*
X46651668Y-24601667D01*
X46785001Y-24535000D01*
X46985001Y-24535000D01*
X47118335Y-24601667D01*
X47185001Y-24668333D01*
X47251668Y-24801667D01*
X47251668Y-25201667D01*
X47185001Y-25335000D01*
X47118335Y-25401667D01*
X46985001Y-25468333D01*
X46785001Y-25468333D01*
X47651668Y-24535000D02*
X48185002Y-24535000D01*
X47851668Y-25468333D02*
X47851668Y-24268333D01*
X47918335Y-24135000D01*
X48051668Y-24068333D01*
X48185002Y-24068333D01*
X48451668Y-24535000D02*
X48985002Y-24535000D01*
X48651668Y-25468333D02*
X48651668Y-24268333D01*
X48718335Y-24135000D01*
X48851668Y-24068333D01*
X48985002Y-24068333D01*
X49385002Y-25401667D02*
X49518335Y-25468333D01*
X49785002Y-25468333D01*
X49918335Y-25401667D01*
X49985002Y-25268333D01*
X49985002Y-25201667D01*
X49918335Y-25068333D01*
X49785002Y-25001667D01*
X49585002Y-25001667D01*
X49451668Y-24935000D01*
X49385002Y-24801667D01*
X49385002Y-24735000D01*
X49451668Y-24601667D01*
X49585002Y-24535000D01*
X49785002Y-24535000D01*
X49918335Y-24601667D01*
X51118335Y-25401667D02*
X50985001Y-25468333D01*
X50718335Y-25468333D01*
X50585001Y-25401667D01*
X50518335Y-25268333D01*
X50518335Y-24735000D01*
X50585001Y-24601667D01*
X50718335Y-24535000D01*
X50985001Y-24535000D01*
X51118335Y-24601667D01*
X51185001Y-24735000D01*
X51185001Y-24868333D01*
X50518335Y-25001667D01*
X51585001Y-24535000D02*
X52118335Y-24535000D01*
X51785001Y-24068333D02*
X51785001Y-25268333D01*
X51851668Y-25401667D01*
X51985001Y-25468333D01*
X52118335Y-25468333D01*
X38151665Y-26935000D02*
X38684999Y-26935000D01*
X38351665Y-26468333D02*
X38351665Y-27668333D01*
X38418332Y-27801667D01*
X38551665Y-27868333D01*
X38684999Y-27868333D01*
X39684999Y-27801667D02*
X39551665Y-27868333D01*
X39284999Y-27868333D01*
X39151665Y-27801667D01*
X39084999Y-27668333D01*
X39084999Y-27135000D01*
X39151665Y-27001667D01*
X39284999Y-26935000D01*
X39551665Y-26935000D01*
X39684999Y-27001667D01*
X39751665Y-27135000D01*
X39751665Y-27268333D01*
X39084999Y-27401667D01*
X40284999Y-27801667D02*
X40418332Y-27868333D01*
X40684999Y-27868333D01*
X40818332Y-27801667D01*
X40884999Y-27668333D01*
X40884999Y-27601667D01*
X40818332Y-27468333D01*
X40684999Y-27401667D01*
X40484999Y-27401667D01*
X40351665Y-27335000D01*
X40284999Y-27201667D01*
X40284999Y-27135000D01*
X40351665Y-27001667D01*
X40484999Y-26935000D01*
X40684999Y-26935000D01*
X40818332Y-27001667D01*
X41284998Y-26935000D02*
X41818332Y-26935000D01*
X41484998Y-26468333D02*
X41484998Y-27668333D01*
X41551665Y-27801667D01*
X41684998Y-27868333D01*
X41818332Y-27868333D01*
X42284998Y-27868333D02*
X42284998Y-26935000D01*
X42284998Y-26468333D02*
X42218332Y-26535000D01*
X42284998Y-26601667D01*
X42351665Y-26535000D01*
X42284998Y-26468333D01*
X42284998Y-26601667D01*
X42951665Y-26935000D02*
X42951665Y-27868333D01*
X42951665Y-27068333D02*
X43018332Y-27001667D01*
X43151665Y-26935000D01*
X43351665Y-26935000D01*
X43484999Y-27001667D01*
X43551665Y-27135000D01*
X43551665Y-27868333D01*
X44818332Y-26935000D02*
X44818332Y-28068333D01*
X44751666Y-28201667D01*
X44684999Y-28268333D01*
X44551666Y-28335000D01*
X44351666Y-28335000D01*
X44218332Y-28268333D01*
X44818332Y-27801667D02*
X44684999Y-27868333D01*
X44418332Y-27868333D01*
X44284999Y-27801667D01*
X44218332Y-27735000D01*
X44151666Y-27601667D01*
X44151666Y-27201667D01*
X44218332Y-27068333D01*
X44284999Y-27001667D01*
X44418332Y-26935000D01*
X44684999Y-26935000D01*
X44818332Y-27001667D01*
X46551666Y-27868333D02*
X46551666Y-26468333D01*
X46551666Y-27001667D02*
X46685000Y-26935000D01*
X46951666Y-26935000D01*
X47085000Y-27001667D01*
X47151666Y-27068333D01*
X47218333Y-27201667D01*
X47218333Y-27601667D01*
X47151666Y-27735000D01*
X47085000Y-27801667D01*
X46951666Y-27868333D01*
X46685000Y-27868333D01*
X46551666Y-27801667D01*
X48018333Y-27868333D02*
X47885000Y-27801667D01*
X47818333Y-27735000D01*
X47751667Y-27601667D01*
X47751667Y-27201667D01*
X47818333Y-27068333D01*
X47885000Y-27001667D01*
X48018333Y-26935000D01*
X48218333Y-26935000D01*
X48351667Y-27001667D01*
X48418333Y-27068333D01*
X48485000Y-27201667D01*
X48485000Y-27601667D01*
X48418333Y-27735000D01*
X48351667Y-27801667D01*
X48218333Y-27868333D01*
X48018333Y-27868333D01*
X49685000Y-27868333D02*
X49685000Y-27135000D01*
X49618334Y-27001667D01*
X49485000Y-26935000D01*
X49218334Y-26935000D01*
X49085000Y-27001667D01*
X49685000Y-27801667D02*
X49551667Y-27868333D01*
X49218334Y-27868333D01*
X49085000Y-27801667D01*
X49018334Y-27668333D01*
X49018334Y-27535000D01*
X49085000Y-27401667D01*
X49218334Y-27335000D01*
X49551667Y-27335000D01*
X49685000Y-27268333D01*
X50351667Y-27868333D02*
X50351667Y-26935000D01*
X50351667Y-27201667D02*
X50418334Y-27068333D01*
X50485001Y-27001667D01*
X50618334Y-26935000D01*
X50751667Y-26935000D01*
X51818334Y-27868333D02*
X51818334Y-26468333D01*
X51818334Y-27801667D02*
X51685001Y-27868333D01*
X51418334Y-27868333D01*
X51285001Y-27801667D01*
X51218334Y-27735000D01*
X51151668Y-27601667D01*
X51151668Y-27201667D01*
X51218334Y-27068333D01*
X51285001Y-27001667D01*
X51418334Y-26935000D01*
X51685001Y-26935000D01*
X51818334Y-27001667D01*
D12*
X40005000Y-43256200D02*
X40005000Y-30556200D01*
X42545000Y-43256200D02*
X40005000Y-43256200D01*
X42545000Y-30556200D02*
X42545000Y-43256200D01*
X40005000Y-30556200D02*
X42545000Y-30556200D01*
X46355000Y-43256200D02*
X46355000Y-30556200D01*
X48895000Y-43256200D02*
X46355000Y-43256200D01*
X48895000Y-30556200D02*
X48895000Y-43256200D01*
X46355000Y-30556200D02*
X48895000Y-30556200D01*
X52705000Y-43307000D02*
X52705000Y-30607000D01*
X55245000Y-43307000D02*
X52705000Y-43307000D01*
X55245000Y-30607000D02*
X55245000Y-43307000D01*
X52705000Y-30607000D02*
X55245000Y-30607000D01*
X59055000Y-43332400D02*
X59055000Y-30632400D01*
X61595000Y-43332400D02*
X59055000Y-43332400D01*
X61595000Y-30632400D02*
X61595000Y-43332400D01*
X59055000Y-30632400D02*
X61595000Y-30632400D01*
X40081200Y-58420000D02*
X40081200Y-45720000D01*
X42621200Y-58420000D02*
X40081200Y-58420000D01*
X42621200Y-45720000D02*
X42621200Y-58420000D01*
X40081200Y-45720000D02*
X42621200Y-45720000D01*
X46456600Y-58420000D02*
X46456600Y-45720000D01*
X48996600Y-58420000D02*
X46456600Y-58420000D01*
X48996600Y-45720000D02*
X48996600Y-58420000D01*
X46456600Y-45720000D02*
X48996600Y-45720000D01*
X52832000Y-58420000D02*
X52832000Y-45720000D01*
X55372000Y-58420000D02*
X52832000Y-58420000D01*
X55372000Y-45720000D02*
X55372000Y-58420000D01*
X52832000Y-45720000D02*
X55372000Y-45720000D01*
X59207400Y-58420000D02*
X59207400Y-45720000D01*
X61747400Y-58420000D02*
X59207400Y-58420000D01*
X61747400Y-45720000D02*
X61747400Y-58420000D01*
X59207400Y-45720000D02*
X61747400Y-45720000D01*
D13*
X38187381Y-40115714D02*
X38901667Y-40115714D01*
X39044524Y-40163334D01*
X39139762Y-40258572D01*
X39187381Y-40401429D01*
X39187381Y-40496667D01*
X39282619Y-39877619D02*
X39282619Y-39115714D01*
X39187381Y-38877619D02*
X38187381Y-38877619D01*
X38663571Y-38877619D02*
X38663571Y-38306190D01*
X39187381Y-38306190D02*
X38187381Y-38306190D01*
X39282619Y-38068095D02*
X39282619Y-37306190D01*
X38187381Y-36877619D02*
X38187381Y-36782380D01*
X38235000Y-36687142D01*
X38282619Y-36639523D01*
X38377857Y-36591904D01*
X38568333Y-36544285D01*
X38806429Y-36544285D01*
X38996905Y-36591904D01*
X39092143Y-36639523D01*
X39139762Y-36687142D01*
X39187381Y-36782380D01*
X39187381Y-36877619D01*
X39139762Y-36972857D01*
X39092143Y-37020476D01*
X38996905Y-37068095D01*
X38806429Y-37115714D01*
X38568333Y-37115714D01*
X38377857Y-37068095D01*
X38282619Y-37020476D01*
X38235000Y-36972857D01*
X38187381Y-36877619D01*
X39092143Y-36115714D02*
X39139762Y-36068095D01*
X39187381Y-36115714D01*
X39139762Y-36163333D01*
X39092143Y-36115714D01*
X39187381Y-36115714D01*
X38187381Y-35449048D02*
X38187381Y-35353809D01*
X38235000Y-35258571D01*
X38282619Y-35210952D01*
X38377857Y-35163333D01*
X38568333Y-35115714D01*
X38806429Y-35115714D01*
X38996905Y-35163333D01*
X39092143Y-35210952D01*
X39139762Y-35258571D01*
X39187381Y-35353809D01*
X39187381Y-35449048D01*
X39139762Y-35544286D01*
X39092143Y-35591905D01*
X38996905Y-35639524D01*
X38806429Y-35687143D01*
X38568333Y-35687143D01*
X38377857Y-35639524D01*
X38282619Y-35591905D01*
X38235000Y-35544286D01*
X38187381Y-35449048D01*
X38187381Y-34496667D02*
X38187381Y-34401428D01*
X38235000Y-34306190D01*
X38282619Y-34258571D01*
X38377857Y-34210952D01*
X38568333Y-34163333D01*
X38806429Y-34163333D01*
X38996905Y-34210952D01*
X39092143Y-34258571D01*
X39139762Y-34306190D01*
X39187381Y-34401428D01*
X39187381Y-34496667D01*
X39139762Y-34591905D01*
X39092143Y-34639524D01*
X38996905Y-34687143D01*
X38806429Y-34734762D01*
X38568333Y-34734762D01*
X38377857Y-34687143D01*
X38282619Y-34639524D01*
X38235000Y-34591905D01*
X38187381Y-34496667D01*
X38187381Y-33830000D02*
X38187381Y-33210952D01*
X38568333Y-33544286D01*
X38568333Y-33401428D01*
X38615952Y-33306190D01*
X38663571Y-33258571D01*
X38758810Y-33210952D01*
X38996905Y-33210952D01*
X39092143Y-33258571D01*
X39139762Y-33306190D01*
X39187381Y-33401428D01*
X39187381Y-33687143D01*
X39139762Y-33782381D01*
X39092143Y-33830000D01*
X44537381Y-40115714D02*
X45251667Y-40115714D01*
X45394524Y-40163334D01*
X45489762Y-40258572D01*
X45537381Y-40401429D01*
X45537381Y-40496667D01*
X45632619Y-39877619D02*
X45632619Y-39115714D01*
X45537381Y-38877619D02*
X44537381Y-38877619D01*
X45013571Y-38877619D02*
X45013571Y-38306190D01*
X45537381Y-38306190D02*
X44537381Y-38306190D01*
X45632619Y-38068095D02*
X45632619Y-37306190D01*
X44537381Y-36877619D02*
X44537381Y-36782380D01*
X44585000Y-36687142D01*
X44632619Y-36639523D01*
X44727857Y-36591904D01*
X44918333Y-36544285D01*
X45156429Y-36544285D01*
X45346905Y-36591904D01*
X45442143Y-36639523D01*
X45489762Y-36687142D01*
X45537381Y-36782380D01*
X45537381Y-36877619D01*
X45489762Y-36972857D01*
X45442143Y-37020476D01*
X45346905Y-37068095D01*
X45156429Y-37115714D01*
X44918333Y-37115714D01*
X44727857Y-37068095D01*
X44632619Y-37020476D01*
X44585000Y-36972857D01*
X44537381Y-36877619D01*
X45442143Y-36115714D02*
X45489762Y-36068095D01*
X45537381Y-36115714D01*
X45489762Y-36163333D01*
X45442143Y-36115714D01*
X45537381Y-36115714D01*
X44537381Y-35449048D02*
X44537381Y-35353809D01*
X44585000Y-35258571D01*
X44632619Y-35210952D01*
X44727857Y-35163333D01*
X44918333Y-35115714D01*
X45156429Y-35115714D01*
X45346905Y-35163333D01*
X45442143Y-35210952D01*
X45489762Y-35258571D01*
X45537381Y-35353809D01*
X45537381Y-35449048D01*
X45489762Y-35544286D01*
X45442143Y-35591905D01*
X45346905Y-35639524D01*
X45156429Y-35687143D01*
X44918333Y-35687143D01*
X44727857Y-35639524D01*
X44632619Y-35591905D01*
X44585000Y-35544286D01*
X44537381Y-35449048D01*
X44537381Y-34496667D02*
X44537381Y-34401428D01*
X44585000Y-34306190D01*
X44632619Y-34258571D01*
X44727857Y-34210952D01*
X44918333Y-34163333D01*
X45156429Y-34163333D01*
X45346905Y-34210952D01*
X45442143Y-34258571D01*
X45489762Y-34306190D01*
X45537381Y-34401428D01*
X45537381Y-34496667D01*
X45489762Y-34591905D01*
X45442143Y-34639524D01*
X45346905Y-34687143D01*
X45156429Y-34734762D01*
X44918333Y-34734762D01*
X44727857Y-34687143D01*
X44632619Y-34639524D01*
X44585000Y-34591905D01*
X44537381Y-34496667D01*
X44870714Y-33306190D02*
X45537381Y-33306190D01*
X44489762Y-33544286D02*
X45204048Y-33782381D01*
X45204048Y-33163333D01*
X50887381Y-40115714D02*
X51601667Y-40115714D01*
X51744524Y-40163334D01*
X51839762Y-40258572D01*
X51887381Y-40401429D01*
X51887381Y-40496667D01*
X51982619Y-39877619D02*
X51982619Y-39115714D01*
X51887381Y-38877619D02*
X50887381Y-38877619D01*
X51363571Y-38877619D02*
X51363571Y-38306190D01*
X51887381Y-38306190D02*
X50887381Y-38306190D01*
X51982619Y-38068095D02*
X51982619Y-37306190D01*
X50887381Y-36877619D02*
X50887381Y-36782380D01*
X50935000Y-36687142D01*
X50982619Y-36639523D01*
X51077857Y-36591904D01*
X51268333Y-36544285D01*
X51506429Y-36544285D01*
X51696905Y-36591904D01*
X51792143Y-36639523D01*
X51839762Y-36687142D01*
X51887381Y-36782380D01*
X51887381Y-36877619D01*
X51839762Y-36972857D01*
X51792143Y-37020476D01*
X51696905Y-37068095D01*
X51506429Y-37115714D01*
X51268333Y-37115714D01*
X51077857Y-37068095D01*
X50982619Y-37020476D01*
X50935000Y-36972857D01*
X50887381Y-36877619D01*
X51792143Y-36115714D02*
X51839762Y-36068095D01*
X51887381Y-36115714D01*
X51839762Y-36163333D01*
X51792143Y-36115714D01*
X51887381Y-36115714D01*
X50887381Y-35449048D02*
X50887381Y-35353809D01*
X50935000Y-35258571D01*
X50982619Y-35210952D01*
X51077857Y-35163333D01*
X51268333Y-35115714D01*
X51506429Y-35115714D01*
X51696905Y-35163333D01*
X51792143Y-35210952D01*
X51839762Y-35258571D01*
X51887381Y-35353809D01*
X51887381Y-35449048D01*
X51839762Y-35544286D01*
X51792143Y-35591905D01*
X51696905Y-35639524D01*
X51506429Y-35687143D01*
X51268333Y-35687143D01*
X51077857Y-35639524D01*
X50982619Y-35591905D01*
X50935000Y-35544286D01*
X50887381Y-35449048D01*
X50887381Y-34496667D02*
X50887381Y-34401428D01*
X50935000Y-34306190D01*
X50982619Y-34258571D01*
X51077857Y-34210952D01*
X51268333Y-34163333D01*
X51506429Y-34163333D01*
X51696905Y-34210952D01*
X51792143Y-34258571D01*
X51839762Y-34306190D01*
X51887381Y-34401428D01*
X51887381Y-34496667D01*
X51839762Y-34591905D01*
X51792143Y-34639524D01*
X51696905Y-34687143D01*
X51506429Y-34734762D01*
X51268333Y-34734762D01*
X51077857Y-34687143D01*
X50982619Y-34639524D01*
X50935000Y-34591905D01*
X50887381Y-34496667D01*
X50887381Y-33258571D02*
X50887381Y-33734762D01*
X51363571Y-33782381D01*
X51315952Y-33734762D01*
X51268333Y-33639524D01*
X51268333Y-33401428D01*
X51315952Y-33306190D01*
X51363571Y-33258571D01*
X51458810Y-33210952D01*
X51696905Y-33210952D01*
X51792143Y-33258571D01*
X51839762Y-33306190D01*
X51887381Y-33401428D01*
X51887381Y-33639524D01*
X51839762Y-33734762D01*
X51792143Y-33782381D01*
X57237381Y-40115714D02*
X57951667Y-40115714D01*
X58094524Y-40163334D01*
X58189762Y-40258572D01*
X58237381Y-40401429D01*
X58237381Y-40496667D01*
X58332619Y-39877619D02*
X58332619Y-39115714D01*
X58237381Y-38877619D02*
X57237381Y-38877619D01*
X57713571Y-38877619D02*
X57713571Y-38306190D01*
X58237381Y-38306190D02*
X57237381Y-38306190D01*
X58332619Y-38068095D02*
X58332619Y-37306190D01*
X57237381Y-36877619D02*
X57237381Y-36782380D01*
X57285000Y-36687142D01*
X57332619Y-36639523D01*
X57427857Y-36591904D01*
X57618333Y-36544285D01*
X57856429Y-36544285D01*
X58046905Y-36591904D01*
X58142143Y-36639523D01*
X58189762Y-36687142D01*
X58237381Y-36782380D01*
X58237381Y-36877619D01*
X58189762Y-36972857D01*
X58142143Y-37020476D01*
X58046905Y-37068095D01*
X57856429Y-37115714D01*
X57618333Y-37115714D01*
X57427857Y-37068095D01*
X57332619Y-37020476D01*
X57285000Y-36972857D01*
X57237381Y-36877619D01*
X58142143Y-36115714D02*
X58189762Y-36068095D01*
X58237381Y-36115714D01*
X58189762Y-36163333D01*
X58142143Y-36115714D01*
X58237381Y-36115714D01*
X57237381Y-35449048D02*
X57237381Y-35353809D01*
X57285000Y-35258571D01*
X57332619Y-35210952D01*
X57427857Y-35163333D01*
X57618333Y-35115714D01*
X57856429Y-35115714D01*
X58046905Y-35163333D01*
X58142143Y-35210952D01*
X58189762Y-35258571D01*
X58237381Y-35353809D01*
X58237381Y-35449048D01*
X58189762Y-35544286D01*
X58142143Y-35591905D01*
X58046905Y-35639524D01*
X57856429Y-35687143D01*
X57618333Y-35687143D01*
X57427857Y-35639524D01*
X57332619Y-35591905D01*
X57285000Y-35544286D01*
X57237381Y-35449048D01*
X57237381Y-34496667D02*
X57237381Y-34401428D01*
X57285000Y-34306190D01*
X57332619Y-34258571D01*
X57427857Y-34210952D01*
X57618333Y-34163333D01*
X57856429Y-34163333D01*
X58046905Y-34210952D01*
X58142143Y-34258571D01*
X58189762Y-34306190D01*
X58237381Y-34401428D01*
X58237381Y-34496667D01*
X58189762Y-34591905D01*
X58142143Y-34639524D01*
X58046905Y-34687143D01*
X57856429Y-34734762D01*
X57618333Y-34734762D01*
X57427857Y-34687143D01*
X57332619Y-34639524D01*
X57285000Y-34591905D01*
X57237381Y-34496667D01*
X57237381Y-33306190D02*
X57237381Y-33496667D01*
X57285000Y-33591905D01*
X57332619Y-33639524D01*
X57475476Y-33734762D01*
X57665952Y-33782381D01*
X58046905Y-33782381D01*
X58142143Y-33734762D01*
X58189762Y-33687143D01*
X58237381Y-33591905D01*
X58237381Y-33401428D01*
X58189762Y-33306190D01*
X58142143Y-33258571D01*
X58046905Y-33210952D01*
X57808810Y-33210952D01*
X57713571Y-33258571D01*
X57665952Y-33306190D01*
X57618333Y-33401428D01*
X57618333Y-33591905D01*
X57665952Y-33687143D01*
X57713571Y-33734762D01*
X57808810Y-33782381D01*
X38187381Y-55260476D02*
X38901667Y-55260476D01*
X39044524Y-55308096D01*
X39139762Y-55403334D01*
X39187381Y-55546191D01*
X39187381Y-55641429D01*
X39282619Y-55022381D02*
X39282619Y-54260476D01*
X38187381Y-54165238D02*
X39187381Y-53831905D01*
X38187381Y-53498571D01*
X39282619Y-53403333D02*
X39282619Y-52641428D01*
X38187381Y-52212857D02*
X38187381Y-52117618D01*
X38235000Y-52022380D01*
X38282619Y-51974761D01*
X38377857Y-51927142D01*
X38568333Y-51879523D01*
X38806429Y-51879523D01*
X38996905Y-51927142D01*
X39092143Y-51974761D01*
X39139762Y-52022380D01*
X39187381Y-52117618D01*
X39187381Y-52212857D01*
X39139762Y-52308095D01*
X39092143Y-52355714D01*
X38996905Y-52403333D01*
X38806429Y-52450952D01*
X38568333Y-52450952D01*
X38377857Y-52403333D01*
X38282619Y-52355714D01*
X38235000Y-52308095D01*
X38187381Y-52212857D01*
X39092143Y-51450952D02*
X39139762Y-51403333D01*
X39187381Y-51450952D01*
X39139762Y-51498571D01*
X39092143Y-51450952D01*
X39187381Y-51450952D01*
X38187381Y-50784286D02*
X38187381Y-50689047D01*
X38235000Y-50593809D01*
X38282619Y-50546190D01*
X38377857Y-50498571D01*
X38568333Y-50450952D01*
X38806429Y-50450952D01*
X38996905Y-50498571D01*
X39092143Y-50546190D01*
X39139762Y-50593809D01*
X39187381Y-50689047D01*
X39187381Y-50784286D01*
X39139762Y-50879524D01*
X39092143Y-50927143D01*
X38996905Y-50974762D01*
X38806429Y-51022381D01*
X38568333Y-51022381D01*
X38377857Y-50974762D01*
X38282619Y-50927143D01*
X38235000Y-50879524D01*
X38187381Y-50784286D01*
X38187381Y-49831905D02*
X38187381Y-49736666D01*
X38235000Y-49641428D01*
X38282619Y-49593809D01*
X38377857Y-49546190D01*
X38568333Y-49498571D01*
X38806429Y-49498571D01*
X38996905Y-49546190D01*
X39092143Y-49593809D01*
X39139762Y-49641428D01*
X39187381Y-49736666D01*
X39187381Y-49831905D01*
X39139762Y-49927143D01*
X39092143Y-49974762D01*
X38996905Y-50022381D01*
X38806429Y-50070000D01*
X38568333Y-50070000D01*
X38377857Y-50022381D01*
X38282619Y-49974762D01*
X38235000Y-49927143D01*
X38187381Y-49831905D01*
X38187381Y-49165238D02*
X38187381Y-48546190D01*
X38568333Y-48879524D01*
X38568333Y-48736666D01*
X38615952Y-48641428D01*
X38663571Y-48593809D01*
X38758810Y-48546190D01*
X38996905Y-48546190D01*
X39092143Y-48593809D01*
X39139762Y-48641428D01*
X39187381Y-48736666D01*
X39187381Y-49022381D01*
X39139762Y-49117619D01*
X39092143Y-49165238D01*
X44537381Y-55260476D02*
X45251667Y-55260476D01*
X45394524Y-55308096D01*
X45489762Y-55403334D01*
X45537381Y-55546191D01*
X45537381Y-55641429D01*
X45632619Y-55022381D02*
X45632619Y-54260476D01*
X44537381Y-54165238D02*
X45537381Y-53831905D01*
X44537381Y-53498571D01*
X45632619Y-53403333D02*
X45632619Y-52641428D01*
X44537381Y-52212857D02*
X44537381Y-52117618D01*
X44585000Y-52022380D01*
X44632619Y-51974761D01*
X44727857Y-51927142D01*
X44918333Y-51879523D01*
X45156429Y-51879523D01*
X45346905Y-51927142D01*
X45442143Y-51974761D01*
X45489762Y-52022380D01*
X45537381Y-52117618D01*
X45537381Y-52212857D01*
X45489762Y-52308095D01*
X45442143Y-52355714D01*
X45346905Y-52403333D01*
X45156429Y-52450952D01*
X44918333Y-52450952D01*
X44727857Y-52403333D01*
X44632619Y-52355714D01*
X44585000Y-52308095D01*
X44537381Y-52212857D01*
X45442143Y-51450952D02*
X45489762Y-51403333D01*
X45537381Y-51450952D01*
X45489762Y-51498571D01*
X45442143Y-51450952D01*
X45537381Y-51450952D01*
X44537381Y-50784286D02*
X44537381Y-50689047D01*
X44585000Y-50593809D01*
X44632619Y-50546190D01*
X44727857Y-50498571D01*
X44918333Y-50450952D01*
X45156429Y-50450952D01*
X45346905Y-50498571D01*
X45442143Y-50546190D01*
X45489762Y-50593809D01*
X45537381Y-50689047D01*
X45537381Y-50784286D01*
X45489762Y-50879524D01*
X45442143Y-50927143D01*
X45346905Y-50974762D01*
X45156429Y-51022381D01*
X44918333Y-51022381D01*
X44727857Y-50974762D01*
X44632619Y-50927143D01*
X44585000Y-50879524D01*
X44537381Y-50784286D01*
X44537381Y-49831905D02*
X44537381Y-49736666D01*
X44585000Y-49641428D01*
X44632619Y-49593809D01*
X44727857Y-49546190D01*
X44918333Y-49498571D01*
X45156429Y-49498571D01*
X45346905Y-49546190D01*
X45442143Y-49593809D01*
X45489762Y-49641428D01*
X45537381Y-49736666D01*
X45537381Y-49831905D01*
X45489762Y-49927143D01*
X45442143Y-49974762D01*
X45346905Y-50022381D01*
X45156429Y-50070000D01*
X44918333Y-50070000D01*
X44727857Y-50022381D01*
X44632619Y-49974762D01*
X44585000Y-49927143D01*
X44537381Y-49831905D01*
X44870714Y-48641428D02*
X45537381Y-48641428D01*
X44489762Y-48879524D02*
X45204048Y-49117619D01*
X45204048Y-48498571D01*
X50887381Y-55260476D02*
X51601667Y-55260476D01*
X51744524Y-55308096D01*
X51839762Y-55403334D01*
X51887381Y-55546191D01*
X51887381Y-55641429D01*
X51982619Y-55022381D02*
X51982619Y-54260476D01*
X50887381Y-54165238D02*
X51887381Y-53831905D01*
X50887381Y-53498571D01*
X51982619Y-53403333D02*
X51982619Y-52641428D01*
X50887381Y-52212857D02*
X50887381Y-52117618D01*
X50935000Y-52022380D01*
X50982619Y-51974761D01*
X51077857Y-51927142D01*
X51268333Y-51879523D01*
X51506429Y-51879523D01*
X51696905Y-51927142D01*
X51792143Y-51974761D01*
X51839762Y-52022380D01*
X51887381Y-52117618D01*
X51887381Y-52212857D01*
X51839762Y-52308095D01*
X51792143Y-52355714D01*
X51696905Y-52403333D01*
X51506429Y-52450952D01*
X51268333Y-52450952D01*
X51077857Y-52403333D01*
X50982619Y-52355714D01*
X50935000Y-52308095D01*
X50887381Y-52212857D01*
X51792143Y-51450952D02*
X51839762Y-51403333D01*
X51887381Y-51450952D01*
X51839762Y-51498571D01*
X51792143Y-51450952D01*
X51887381Y-51450952D01*
X50887381Y-50784286D02*
X50887381Y-50689047D01*
X50935000Y-50593809D01*
X50982619Y-50546190D01*
X51077857Y-50498571D01*
X51268333Y-50450952D01*
X51506429Y-50450952D01*
X51696905Y-50498571D01*
X51792143Y-50546190D01*
X51839762Y-50593809D01*
X51887381Y-50689047D01*
X51887381Y-50784286D01*
X51839762Y-50879524D01*
X51792143Y-50927143D01*
X51696905Y-50974762D01*
X51506429Y-51022381D01*
X51268333Y-51022381D01*
X51077857Y-50974762D01*
X50982619Y-50927143D01*
X50935000Y-50879524D01*
X50887381Y-50784286D01*
X50887381Y-49831905D02*
X50887381Y-49736666D01*
X50935000Y-49641428D01*
X50982619Y-49593809D01*
X51077857Y-49546190D01*
X51268333Y-49498571D01*
X51506429Y-49498571D01*
X51696905Y-49546190D01*
X51792143Y-49593809D01*
X51839762Y-49641428D01*
X51887381Y-49736666D01*
X51887381Y-49831905D01*
X51839762Y-49927143D01*
X51792143Y-49974762D01*
X51696905Y-50022381D01*
X51506429Y-50070000D01*
X51268333Y-50070000D01*
X51077857Y-50022381D01*
X50982619Y-49974762D01*
X50935000Y-49927143D01*
X50887381Y-49831905D01*
X50887381Y-48593809D02*
X50887381Y-49070000D01*
X51363571Y-49117619D01*
X51315952Y-49070000D01*
X51268333Y-48974762D01*
X51268333Y-48736666D01*
X51315952Y-48641428D01*
X51363571Y-48593809D01*
X51458810Y-48546190D01*
X51696905Y-48546190D01*
X51792143Y-48593809D01*
X51839762Y-48641428D01*
X51887381Y-48736666D01*
X51887381Y-48974762D01*
X51839762Y-49070000D01*
X51792143Y-49117619D01*
X57237381Y-55260476D02*
X57951667Y-55260476D01*
X58094524Y-55308096D01*
X58189762Y-55403334D01*
X58237381Y-55546191D01*
X58237381Y-55641429D01*
X58332619Y-55022381D02*
X58332619Y-54260476D01*
X57237381Y-54165238D02*
X58237381Y-53831905D01*
X57237381Y-53498571D01*
X58332619Y-53403333D02*
X58332619Y-52641428D01*
X57237381Y-52212857D02*
X57237381Y-52117618D01*
X57285000Y-52022380D01*
X57332619Y-51974761D01*
X57427857Y-51927142D01*
X57618333Y-51879523D01*
X57856429Y-51879523D01*
X58046905Y-51927142D01*
X58142143Y-51974761D01*
X58189762Y-52022380D01*
X58237381Y-52117618D01*
X58237381Y-52212857D01*
X58189762Y-52308095D01*
X58142143Y-52355714D01*
X58046905Y-52403333D01*
X57856429Y-52450952D01*
X57618333Y-52450952D01*
X57427857Y-52403333D01*
X57332619Y-52355714D01*
X57285000Y-52308095D01*
X57237381Y-52212857D01*
X58142143Y-51450952D02*
X58189762Y-51403333D01*
X58237381Y-51450952D01*
X58189762Y-51498571D01*
X58142143Y-51450952D01*
X58237381Y-51450952D01*
X57237381Y-50784286D02*
X57237381Y-50689047D01*
X57285000Y-50593809D01*
X57332619Y-50546190D01*
X57427857Y-50498571D01*
X57618333Y-50450952D01*
X57856429Y-50450952D01*
X58046905Y-50498571D01*
X58142143Y-50546190D01*
X58189762Y-50593809D01*
X58237381Y-50689047D01*
X58237381Y-50784286D01*
X58189762Y-50879524D01*
X58142143Y-50927143D01*
X58046905Y-50974762D01*
X57856429Y-51022381D01*
X57618333Y-51022381D01*
X57427857Y-50974762D01*
X57332619Y-50927143D01*
X57285000Y-50879524D01*
X57237381Y-50784286D01*
X57237381Y-49831905D02*
X57237381Y-49736666D01*
X57285000Y-49641428D01*
X57332619Y-49593809D01*
X57427857Y-49546190D01*
X57618333Y-49498571D01*
X57856429Y-49498571D01*
X58046905Y-49546190D01*
X58142143Y-49593809D01*
X58189762Y-49641428D01*
X58237381Y-49736666D01*
X58237381Y-49831905D01*
X58189762Y-49927143D01*
X58142143Y-49974762D01*
X58046905Y-50022381D01*
X57856429Y-50070000D01*
X57618333Y-50070000D01*
X57427857Y-50022381D01*
X57332619Y-49974762D01*
X57285000Y-49927143D01*
X57237381Y-49831905D01*
X57237381Y-48641428D02*
X57237381Y-48831905D01*
X57285000Y-48927143D01*
X57332619Y-48974762D01*
X57475476Y-49070000D01*
X57665952Y-49117619D01*
X58046905Y-49117619D01*
X58142143Y-49070000D01*
X58189762Y-49022381D01*
X58237381Y-48927143D01*
X58237381Y-48736666D01*
X58189762Y-48641428D01*
X58142143Y-48593809D01*
X58046905Y-48546190D01*
X57808810Y-48546190D01*
X57713571Y-48593809D01*
X57665952Y-48641428D01*
X57618333Y-48736666D01*
X57618333Y-48927143D01*
X57665952Y-49022381D01*
X57713571Y-49070000D01*
X57808810Y-49117619D01*
M02*
