G04 #@! TF.FileFunction,Soldermask,Top*
%FSLAX46Y46*%
G04 Gerber Fmt 4.6, Leading zero omitted, Abs format (unit mm)*
G04 Created by KiCad (PCBNEW 4.0.6) date Fri Jun 16 13:15:56 2017*
%MOMM*%
%LPD*%
G01*
G04 APERTURE LIST*
%ADD10C,0.100000*%
%ADD11C,2.100000*%
G04 APERTURE END LIST*
D10*
D11*
X41275000Y-31826200D03*
X41275000Y-34442400D03*
X41275000Y-36830000D03*
X41275000Y-39522400D03*
X41275000Y-41986200D03*
X47625000Y-31826200D03*
X47625000Y-34442400D03*
X47625000Y-36830000D03*
X47625000Y-39522400D03*
X47625000Y-41986200D03*
X53975000Y-31877000D03*
X53975000Y-34544000D03*
X53975000Y-36830000D03*
X53975000Y-39624000D03*
X53975000Y-42037000D03*
X60325000Y-31902400D03*
X60325000Y-34594800D03*
X60325000Y-36830000D03*
X60325000Y-39674800D03*
X60325000Y-42062400D03*
X41275000Y-46990000D03*
X41427400Y-49530000D03*
X41275000Y-52070000D03*
X41427400Y-54610000D03*
X41275000Y-57150000D03*
X47625000Y-46990000D03*
X47828200Y-49530000D03*
X47625000Y-52070000D03*
X47828200Y-54610000D03*
X47625000Y-57150000D03*
X53975000Y-46990000D03*
X54229000Y-49530000D03*
X53975000Y-52070000D03*
X54229000Y-54610000D03*
X53975000Y-57150000D03*
X60325000Y-46990000D03*
X60629800Y-49530000D03*
X60325000Y-52070000D03*
X60629800Y-54610000D03*
X60325000Y-57150000D03*
M02*
