M48
METRIC,TZ
T1C1.000
%
G90
G05
T1
X41.275Y-31.826
X41.275Y-34.442
X41.275Y-36.83
X41.275Y-39.522
X41.275Y-41.986
X41.275Y-46.99
X41.275Y-52.07
X41.275Y-57.15
X41.427Y-49.53
X41.427Y-54.61
X47.625Y-31.826
X47.625Y-34.442
X47.625Y-36.83
X47.625Y-39.522
X47.625Y-41.986
X47.625Y-46.99
X47.625Y-52.07
X47.625Y-57.15
X47.828Y-49.53
X47.828Y-54.61
X53.975Y-31.877
X53.975Y-34.544
X53.975Y-36.83
X53.975Y-39.624
X53.975Y-42.037
X53.975Y-46.99
X53.975Y-52.07
X53.975Y-57.15
X54.229Y-49.53
X54.229Y-54.61
X60.325Y-31.902
X60.325Y-34.595
X60.325Y-36.83
X60.325Y-39.675
X60.325Y-42.062
X60.325Y-46.99
X60.325Y-52.07
X60.325Y-57.15
X60.63Y-49.53
X60.63Y-54.61
T0
M30
